<?xml version="1.0" encoding="iso-8859-1"?>
<!-- Generator: Adobe Illustrator 13.0.0, SVG Export Plug-In . SVG Version: 6.00 Build 14948)  -->
<!DOCTYPE svg PUBLIC "-//W3C//DTD SVG 1.1//EN" "http://www.w3.org/Graphics/SVG/1.1/DTD/svg11.dtd">
<svg version="1.1" id="Layer_1" xmlns="http://www.w3.org/2000/svg" xmlns:xlink="http://www.w3.org/1999/xlink" x="0px" y="0px"
	 viewBox="0 0 194.204 44.763" style="enable-background:new 0 0 194.204 44.763;"
	 xml:space="preserve">
<g>
	<path style="fill:#9F1C33;" d="M35.576,44.504c-3.557,0.181-9.2,0.294-12.889,0.249c-6.653-0.083-15.633-0.396-20.27-6.051
		c-3.717-4.529-2.68-10.72-0.028-15.575C10.75,7.818,29.953,1.158,46.397,0.326C49.6,0.165,52.93,0,56.239,0
		c4.043,0,5.49,0.221,5.49,0.221s-2.71,0.036-6.346,0.488c-3.344,0.415-9.824,1.564-14.486,3.283
		c-7.946,2.931-15.906,7.38-21.323,14.055c-3.566,4.395-7.545,11.414-5.365,17.289c2.385,6.422,7.591,8.342,12.765,8.842
		C30.47,44.514,35.576,44.504,35.576,44.504"/>
	<path style="fill:#9F1C33;" d="M72.556,4.281c-1.8-2.728-6.648-3.875-9.439-3.875c-0.954,0-2.223,0.129-2.358,0.142
		c-0.158,0.016-0.395,0.033-0.708,0.057c-0.922,0.066-2.469,0.179-4.625,0.447c-0.401,0.05-0.859,0.112-1.362,0.186
		c0.403,0.136,0.802,0.285,1.199,0.438c1.59,0.617,2.944,1.698,3.878,3.112c3.085,4.676-3.418,10.316-6.737,12.469
		c-5.78,3.748-12.803,5.673-19.473,7.067c-2.049,0.43-4.119,0.752-6.193,1.025c-0.989,0.131-1.982,0.228-2.975,0.319
		c-1.076,0.1-4.543,0.134,0.218,0.099c-1.369,0.011-2.739,0.021-4.108,0.079c0.448-0.02-1.635,0.045-0.693,0.13
		c2.793,0.251,5.657,0.141,8.457,0.119c13.217-0.098,27.797-1.884,39.135-9.238C70.518,14.427,75.673,9.006,72.556,4.281"/>
	<path style="fill:#9F1C33;" d="M63.119,30.727c-1.08-0.134-5.96-0.685-6.875,0.17c-2.64,2.469-5.764,4.475-8.874,6.281
		c-3.079,1.787-6.342,3.236-9.684,4.446c-1.934,0.699-3.918,1.237-5.916,1.716c-1.078,0.258-2.169,0.452-3.262,0.626
		c2.788,0.227,5.023,0.299,5.049,0.299c8.546,0,15.638-1.365,23.1-4.774c4.732-2.161,9.514-5.019,13.337-8.594
		C69.362,31.488,64.041,30.841,63.119,30.727"/>
	<rect x="73.536" y="35.216" style="fill:#9F1C33;" width="118.837" height="8.144"/>
	<path style="fill:#382439;" d="M137.08,19.578c-0.199,0.091-0.336,0.19-0.407,0.299c-0.326,0.29-0.942,0.779-1.848,1.467
		s-1.956,1.268-3.151,1.738c-0.508,0.182-0.896,0.245-1.168,0.191c-0.272-0.055-0.335-0.408-0.19-1.06
		c0.072-0.326,0.19-0.715,0.354-1.168s0.335-0.897,0.516-1.331c0.181-0.435,0.372-0.851,0.571-1.25
		c0.198-0.398,0.353-0.742,0.462-1.032c0.108-0.218,0.135-0.435,0.081-0.653c-0.055-0.217-0.163-0.38-0.326-0.488
		c-0.163-0.109-0.345-0.145-0.543-0.109c-0.2,0.036-0.372,0.181-0.517,0.435c-0.145,0.181-0.488,0.589-1.032,1.222
		c-0.543,0.634-1.178,1.313-1.902,2.038c-0.724,0.725-1.503,1.431-2.335,2.119c-0.834,0.688-1.595,1.195-2.283,1.521
		c-0.543,0.182-0.933,0.244-1.168,0.19c-0.235-0.054-0.335-0.199-0.299-0.434c0.036-0.236,0.154-0.535,0.354-0.897
		c0.197-0.362,0.461-0.761,0.786-1.195c0.362-0.507,0.824-1.006,1.387-1.494c0.561-0.49,1.113-0.924,1.656-1.305
		c0.544-0.38,1.032-0.679,1.468-0.896c0.434-0.217,0.706-0.326,0.814-0.326c0.109-0.036,0.19-0.136,0.244-0.299
		c0.055-0.163,0.036-0.326-0.054-0.489c-0.091-0.163-0.264-0.299-0.517-0.408c-0.254-0.108-0.616-0.126-1.087-0.054
		c-0.471,0.074-1.031,0.363-1.684,0.869c-0.652,0.508-1.277,1.106-1.874,1.793c-0.428,0.494-0.812,1.012-1.175,1.541
		c-0.162,0.153-0.359,0.328-0.591,0.524c-0.472,0.399-1.024,0.788-1.657,1.168c-0.636,0.381-1.305,0.743-2.011,1.087
		c-0.706,0.345-1.386,0.571-2.037,0.679c-1.27,0.218-1.902-0.289-1.902-1.521c0-0.253,0.018-0.516,0.054-0.788
		s0.091-0.57,0.163-0.896c0.436-0.399,1.096-1.05,1.984-1.956c0.887-0.905,1.91-2.101,3.069-3.587
		c1.63-2.027,2.942-3.848,3.939-5.46c0.996-1.611,1.548-3.196,1.657-4.754c0.071-0.905-0.01-1.63-0.244-2.173
		c-0.237-0.544-0.608-0.815-1.115-0.815c-0.688,0-1.557,0.579-2.607,1.738c-0.833,0.942-1.657,2.029-2.473,3.26
		c-0.814,1.232-1.566,2.545-2.255,3.939c-0.688,1.395-1.303,2.844-1.847,4.347c-0.543,1.504-0.942,2.998-1.195,4.483
		c-0.02,0.09-0.027,0.18-0.045,0.271l-0.063,0.055c-0.182,0.217-0.508,0.525-0.979,0.923c-0.471,0.399-1.023,0.788-1.657,1.168
		c-0.634,0.381-1.304,0.743-2.01,1.087c-0.707,0.345-1.386,0.571-2.038,0.679c-1.268,0.218-1.901-0.289-1.901-1.521
		c0-0.253,0.019-0.516,0.055-0.788c0.035-0.272,0.09-0.57,0.163-0.896c0.434-0.399,1.095-1.05,1.982-1.956
		c0.888-0.905,1.91-2.101,3.07-3.587c1.63-2.027,2.942-3.848,3.938-5.46c0.996-1.611,1.55-3.196,1.657-4.754
		c0.073-0.905-0.009-1.63-0.244-2.173c-0.235-0.544-0.606-0.815-1.113-0.815c-0.689,0-1.559,0.579-2.608,1.738
		c-0.834,0.942-1.657,2.029-2.472,3.26c-0.815,1.232-1.567,2.545-2.255,3.939c-0.689,1.395-1.305,2.844-1.848,4.347
		c-0.544,1.504-0.942,2.998-1.195,4.483l-0.022,0.139l-0.031,0.023c-0.471,0.435-1.068,0.897-1.793,1.386
		c-0.725,0.489-1.703,1.051-2.934,1.685c-1.232,0.634-2.771,1.358-4.619,2.173c-1.847,0.815-4.129,1.729-6.846,2.744
		c-1.883,0.725-3.577,1.222-5.08,1.494c-1.504,0.271-2.889,0.407-4.156,0.407c-0.435,0-0.978-0.018-1.63-0.055
		c-0.653-0.036-1.296-0.163-1.93-0.38c-0.633-0.218-1.176-0.543-1.629-0.979c-0.453-0.435-0.697-1.05-0.734-1.848
		c-0.035-0.833,0.318-1.702,1.06-2.608c0.742-0.905,1.711-1.774,2.906-2.607c1.196-0.833,2.536-1.622,4.021-2.364
		c1.485-0.742,2.97-1.367,4.456-1.875c1.629-0.615,3.006-0.95,4.129-1.005c1.122-0.054,2.028-0.081,2.717-0.081
		c0.507,0,0.886-0.055,1.14-0.163c0.253-0.109,0.381-0.362,0.381-0.761c0-0.29-0.136-0.516-0.408-0.679
		c-0.272-0.163-0.752-0.245-1.439-0.245c-0.652,0-1.25,0.055-1.793,0.163c-0.544,0.109-0.906,0.163-1.087,0.163
		c-0.182,0-0.526-0.126-1.033-0.38c-0.507-0.253-1.023-0.552-1.548-0.897c-0.525-0.343-0.996-0.697-1.412-1.059
		c-0.417-0.362-0.625-0.633-0.625-0.815c0-0.217,0.307-0.561,0.923-1.032c0.616-0.471,1.458-0.932,2.527-1.386
		c1.068-0.453,2.317-0.851,3.749-1.195c1.43-0.344,2.961-0.516,4.591-0.516c0.579,0,1.168,0.054,1.766,0.163
		c0.597,0.108,0.896,0.308,0.896,0.597c0,0.182-0.108,0.471-0.326,0.869c-0.217,0.399-0.461,0.825-0.733,1.277
		c-0.272,0.454-0.517,0.888-0.734,1.305c-0.217,0.416-0.326,0.733-0.326,0.95c0,0.217,0.136,0.372,0.408,0.462
		c0.271,0.091,0.551,0.136,0.842,0.136c0.361,0,0.588-0.036,0.679-0.109c0.09-0.072,0.144-0.19,0.163-0.353
		c0.018-0.163,0.055-0.361,0.109-0.598c0.054-0.235,0.208-0.516,0.462-0.841c0.217-0.327,0.461-0.653,0.733-0.979
		c0.271-0.326,0.524-0.615,0.761-0.869c0.234-0.253,0.442-0.48,0.625-0.679c0.18-0.199,0.271-0.335,0.271-0.408
		c0-0.181-0.091-0.343-0.271-0.489c-0.183-0.144-0.363-0.217-0.544-0.217c-0.109,0.073-0.236,0.181-0.38,0.326l-0.218,0.163
		l0.055-0.435c0.035-0.326-0.046-0.588-0.245-0.788c-0.199-0.198-0.48-0.353-0.842-0.461c-0.362-0.109-0.789-0.19-1.276-0.245
		c-0.49-0.054-1.006-0.082-1.549-0.082c-0.906,0-1.784,0.046-2.636,0.137c-0.851,0.09-1.476,0.172-1.874,0.244
		c-0.942,0.181-1.893,0.444-2.852,0.788c-0.961,0.345-1.848,0.706-2.663,1.086c-0.815,0.381-1.521,0.743-2.119,1.087
		c-0.597,0.345-0.987,0.625-1.168,0.842c-0.217,0.399-0.326,0.78-0.326,1.141c0,0.508,0.163,0.951,0.489,1.332
		c0.326,0.38,0.715,0.715,1.168,1.004c0.453,0.291,0.906,0.553,1.359,0.789c0.452,0.235,0.805,0.443,1.059,0.624
		c-1.159,0.363-2.355,0.816-3.586,1.358c-1.051,0.472-2.255,1.079-3.613,1.821c-1.358,0.742-2.726,1.621-4.102,2.635
		c-1.557,1.051-2.635,2.074-3.233,3.07s-0.897,1.911-0.897,2.744c0,1.377,0.617,2.481,1.848,3.314c1.232,0.834,3.06,1.25,5.488,1.25
		c0.651,0,1.349-0.036,2.091-0.109c0.743-0.071,1.576-0.217,2.5-0.434c0.923-0.218,1.946-0.507,3.07-0.87
		c1.122-0.361,2.426-0.815,3.911-1.358c1.34-0.471,2.789-1.06,4.347-1.766c1.557-0.707,3.034-1.422,4.428-2.146
		c1.395-0.725,2.626-1.422,3.695-2.092c0.476-0.298,0.87-0.574,1.205-0.832c-0.014,0.232-0.038,0.464-0.038,0.696
		c0,0.869,0.172,1.621,0.517,2.255c0.345,0.634,0.986,0.896,1.93,0.788c0.687-0.072,1.439-0.28,2.255-0.625
		c0.814-0.344,1.602-0.742,2.363-1.195c0.761-0.453,1.431-0.915,2.01-1.386c0.199-0.161,0.357-0.303,0.521-0.447
		c-0.011,0.203-0.032,0.406-0.032,0.61c0,0.869,0.172,1.621,0.517,2.255c0.343,0.634,0.986,0.896,1.928,0.788
		c0.688-0.072,1.44-0.28,2.255-0.625c0.815-0.344,1.604-0.742,2.363-1.195c0.365-0.217,0.706-0.437,1.029-0.658
		c-0.039,0.121-0.078,0.243-0.105,0.359c-0.218,0.978-0.108,1.639,0.326,1.983c0.436,0.344,1.087,0.372,1.956,0.081
		c0.796-0.289,1.576-0.706,2.336-1.249c0.761-0.544,1.449-1.087,2.065-1.63c0.688-0.652,1.357-1.34,2.01-2.065
		c-0.108,0.326-0.217,0.652-0.326,0.978c-0.073,0.29-0.154,0.607-0.244,0.951c-0.091,0.345-0.118,0.679-0.082,1.005
		c0.036,0.617,0.191,1.032,0.462,1.25c0.272,0.217,0.606,0.326,1.006,0.326c0.253,0,0.524-0.036,0.814-0.109
		c0.29-0.072,0.58-0.144,0.87-0.217c0.361-0.072,0.814-0.263,1.357-0.571c0.543-0.307,1.088-0.66,1.631-1.059
		c0.543-0.398,1.059-0.806,1.549-1.223c0.488-0.416,0.859-0.788,1.113-1.114c0.218-0.253,0.299-0.434,0.244-0.543
		c-0.055-0.109-0.163-0.163-0.325-0.163C137.46,19.442,137.278,19.488,137.08,19.578 M115.7,14.905
		c0.507-1.285,1.086-2.562,1.738-3.831c0.652-1.267,1.331-2.472,2.038-3.612c0.706-1.142,1.403-2.147,2.091-3.016
		c0.797-0.941,1.404-1.386,1.821-1.331c0.416,0.054,0.534,0.553,0.353,1.494c-0.108,0.58-0.243,1.132-0.407,1.657
		c-0.163,0.526-0.427,1.114-0.788,1.766c-0.362,0.652-0.824,1.395-1.386,2.227c-0.562,0.834-1.276,1.83-2.146,2.989
		c-1.051,1.449-1.948,2.572-2.69,3.369s-1.349,1.449-1.819,1.955C114.794,17.414,115.192,16.192,115.7,14.905z M106.137,14.905
		c0.507-1.285,1.087-2.562,1.739-3.831c0.651-1.267,1.331-2.472,2.036-3.612c0.707-1.142,1.403-2.147,2.093-3.016
		c0.796-0.941,1.403-1.386,1.819-1.331c0.416,0.054,0.534,0.553,0.354,1.494c-0.108,0.58-0.244,1.132-0.407,1.657
		c-0.163,0.526-0.426,1.114-0.788,1.766s-0.824,1.395-1.385,2.227c-0.562,0.834-1.277,1.83-2.146,2.989
		c-1.052,1.449-1.947,2.572-2.689,3.369c-0.743,0.797-1.351,1.449-1.82,1.955C105.231,17.414,105.629,16.192,106.137,14.905z"/>
	<path style="fill:#382439;" d="M175.546,25.174c-0.163,0.091-0.407,0.354-0.733,0.788c-0.544,0.725-1.304,1.368-2.282,1.929
		c-0.978,0.562-2.101,0.842-3.369,0.842c-0.579,0-1.168-0.071-1.766-0.217c-0.597-0.145-1.204-0.398-1.82-0.761
		c-1.304-0.688-2.436-1.467-3.395-2.336c-0.961-0.87-1.803-1.793-2.527-2.771s-1.377-2.001-1.956-3.07
		c-0.58-1.068-1.141-2.182-1.684-3.342c1.376-0.144,2.988-0.398,4.835-0.76c1.848-0.362,3.695-0.833,5.542-1.413
		c0.942-0.289,1.956-0.643,3.043-1.059c1.086-0.416,2.083-0.888,2.988-1.413c0.904-0.525,1.639-1.068,2.201-1.63
		c0.561-0.561,0.806-1.15,0.732-1.766c-0.181-1.087-1.123-1.974-2.825-2.663c-1.703-0.687-4.057-1.068-7.062-1.14
		c-0.399,0-0.798,0.009-1.196,0.027c-0.398,0.019-0.797,0.045-1.195,0.081c0.436-0.615,0.706-0.978,0.815-1.086
		c0.144-0.218,0.199-0.408,0.163-0.571c-0.037-0.163-0.136-0.28-0.299-0.353c-0.163-0.072-0.354-0.09-0.571-0.054
		c-0.217,0.036-0.398,0.108-0.543,0.217c-0.145,0.145-0.29,0.326-0.435,0.543c-0.146,0.182-0.317,0.408-0.517,0.68
		c-0.199,0.271-0.407,0.552-0.625,0.841c-1.23,0.182-2.443,0.417-3.64,0.707c-1.195,0.29-2.265,0.58-3.205,0.869
		c-0.943,0.291-1.731,0.571-2.364,0.842c-0.634,0.272-1.023,0.462-1.168,0.571c-0.217,0.145-0.326,0.344-0.326,0.597
		c0,0.254,0.055,0.481,0.163,0.68c0.109,0.199,0.244,0.326,0.408,0.38c0.162,0.055,0.334-0.027,0.516-0.244
		c0.071-0.181,0.37-0.399,0.896-0.653c0.524-0.252,1.177-0.524,1.956-0.814c0.777-0.29,1.666-0.571,2.662-0.843
		c0.996-0.271,2.019-0.516,3.069-0.733c-0.868,1.159-1.829,2.464-2.879,3.912c-1.052,1.449-2.011,2.825-2.88,4.129
		c-0.326,0-0.59,0.109-0.788,0.326c-0.199,0.218-0.189,0.472,0.027,0.761v0.054c-0.761,1.232-1.521,2.509-2.282,3.831
		c-0.76,1.322-1.439,2.563-2.037,3.722c-0.598,1.159-1.068,2.192-1.413,3.097s-0.479,1.558-0.407,1.956
		c0.035,0.434,0.108,0.742,0.218,0.923c0.108,0.182,0.234,0.28,0.38,0.299c0.145,0.019,0.299-0.027,0.462-0.136
		s0.334-0.218,0.516-0.326c0.218-0.217,0.408-0.507,0.57-0.869c0.164-0.362,0.335-0.742,0.517-1.141
		c0.036-0.218,0.019-0.308-0.055-0.272c-0.072,0.037-0.163,0.091-0.271,0.164c-0.109,0.072-0.218,0.127-0.326,0.163
		c-0.109,0.036-0.163-0.036-0.163-0.218c0-0.145,0.126-0.534,0.38-1.168c0.253-0.633,0.616-1.413,1.087-2.337
		c0.47-0.923,1.014-1.946,1.63-3.069c0.615-1.122,1.285-2.228,2.01-3.315c0.579,0.978,1.195,2.047,1.849,3.206
		c0.651,1.16,1.421,2.309,2.309,3.45s1.919,2.219,3.098,3.233c1.176,1.015,2.581,1.865,4.21,2.554
		c1.23,0.543,2.408,0.814,3.531,0.814c0.798,0,1.539-0.116,2.229-0.354c0.688-0.234,1.295-0.516,1.82-0.842
		c0.524-0.326,0.969-0.669,1.331-1.032c0.361-0.361,0.615-0.688,0.761-0.978c0.144-0.29,0.253-0.562,0.326-0.815
		c0.071-0.253,0.09-0.443,0.054-0.57S175.709,25.084,175.546,25.174 M158.893,10.069c1.231-1.684,2.318-3.142,3.26-4.374
		c0.362-0.072,0.715-0.117,1.061-0.135c0.344-0.018,0.679-0.045,1.005-0.082c1.267-0.072,2.508-0.027,3.722,0.136
		c1.213,0.163,2.282,0.399,3.205,0.706c0.924,0.309,1.648,0.671,2.174,1.087c0.525,0.417,0.733,0.842,0.625,1.277
		c-0.254,0.616-1.033,1.232-2.337,1.847c-1.304,0.617-2.934,1.323-4.89,2.119c-0.979,0.326-2.02,0.625-3.124,0.897
		c-1.105,0.271-2.173,0.498-3.206,0.679c-1.032,0.182-1.992,0.326-2.879,0.435c-0.889,0.108-1.568,0.181-2.038,0.217
		C156.52,13.357,157.662,11.754,158.893,10.069z"/>
	<path style="fill:#382439;" d="M194.128,19.252c-0.092-0.235-0.281-0.208-0.571,0.081c-0.29,0.326-0.771,0.743-1.439,1.25
		c-0.671,0.507-1.395,0.997-2.174,1.467c-0.778,0.471-1.566,0.888-2.364,1.249c-0.796,0.363-1.448,0.562-1.955,0.598
		c-0.218,0-0.427,0-0.624,0c-0.2,0-0.381-0.036-0.544-0.108c-0.163-0.073-0.299-0.191-0.407-0.353
		c-0.109-0.163-0.163-0.426-0.163-0.788c0.072-0.652,0.181-1.068,0.326-1.25c0.144-0.181,0.253-0.398,0.325-0.652
		c0.218,0.254,0.671,0.318,1.358,0.19c0.688-0.126,1.322-0.353,1.902-0.679c0.47-0.29,0.914-0.679,1.331-1.168
		c0.416-0.489,0.733-0.987,0.95-1.494c0.218-0.507,0.308-0.96,0.271-1.359c-0.036-0.398-0.235-0.669-0.597-0.814
		c-0.509-0.182-1.061-0.208-1.657-0.082c-0.598,0.127-1.277,0.535-2.038,1.222c-0.942,0.834-1.693,1.757-2.254,2.771
		c-0.054,0.097-0.098,0.199-0.148,0.298c-0.143,0.077-0.255,0.157-0.312,0.246c-0.326,0.29-0.943,0.779-1.849,1.467
		s-1.955,1.268-3.15,1.738c-0.508,0.182-0.897,0.245-1.168,0.191c-0.272-0.055-0.336-0.408-0.191-1.06
		c0.073-0.326,0.191-0.715,0.354-1.168c0.162-0.453,0.334-0.897,0.516-1.331c0.181-0.435,0.371-0.851,0.57-1.25
		c0.199-0.398,0.353-0.742,0.462-1.032c0.109-0.218,0.136-0.435,0.082-0.653c-0.055-0.217-0.163-0.38-0.327-0.488
		c-0.163-0.109-0.344-0.145-0.543-0.109c-0.199,0.036-0.372,0.181-0.516,0.435c-0.146,0.181-0.489,0.589-1.032,1.222
		c-0.544,0.634-1.178,1.313-1.902,2.038s-1.504,1.431-2.336,2.119c-0.834,0.688-1.595,1.195-2.282,1.521
		c-0.544,0.182-0.933,0.244-1.168,0.19c-0.236-0.054-0.336-0.199-0.299-0.434c0.036-0.236,0.153-0.535,0.354-0.897
		c0.198-0.362,0.462-0.761,0.786-1.195c0.362-0.507,0.824-1.006,1.387-1.494c0.561-0.49,1.113-0.924,1.657-1.305
		c0.544-0.38,1.032-0.679,1.467-0.896s0.707-0.326,0.814-0.326c0.109-0.036,0.191-0.136,0.245-0.299s0.035-0.326-0.054-0.489
		c-0.091-0.163-0.264-0.299-0.517-0.408c-0.254-0.108-0.616-0.126-1.087-0.054c-0.472,0.074-1.032,0.363-1.684,0.869
		c-0.653,0.508-1.277,1.106-1.875,1.793c-0.598,0.689-1.133,1.413-1.603,2.174c-0.471,0.761-0.778,1.449-0.925,2.065
		c-0.217,0.978-0.107,1.639,0.326,1.983c0.436,0.344,1.087,0.372,1.956,0.081c0.797-0.289,1.576-0.706,2.337-1.249
		c0.761-0.544,1.448-1.087,2.064-1.63c0.688-0.652,1.358-1.34,2.011-2.065c-0.109,0.326-0.218,0.652-0.326,0.978
		c-0.073,0.29-0.155,0.607-0.245,0.951c-0.091,0.345-0.118,0.679-0.081,1.005c0.035,0.617,0.19,1.032,0.462,1.25
		c0.271,0.217,0.606,0.326,1.006,0.326c0.253,0,0.523-0.036,0.814-0.109c0.289-0.072,0.579-0.144,0.869-0.217
		c0.362-0.072,0.815-0.263,1.358-0.571c0.544-0.307,1.087-0.66,1.63-1.059c0.428-0.314,0.826-0.638,1.22-0.962
		c-0.099,0.366-0.184,0.739-0.243,1.125c-0.072,0.543-0.009,0.996,0.191,1.358c0.198,0.362,0.479,0.634,0.842,0.815
		c0.361,0.182,0.76,0.281,1.195,0.299c0.435,0.018,0.869-0.027,1.304-0.136c0.688-0.145,1.439-0.425,2.255-0.842
		c0.815-0.416,1.603-0.869,2.364-1.359c0.76-0.488,1.448-0.995,2.063-1.521c0.616-0.525,1.032-0.968,1.25-1.331
		C194.227,19.714,194.218,19.488,194.128,19.252 M185.815,18.518c0.09-0.144,0.28-0.344,0.57-0.597
		c0.47-0.435,1.006-0.833,1.603-1.196c0.599-0.362,0.97-0.434,1.114-0.217c0.181,0.29,0.063,0.706-0.353,1.249
		c-0.417,0.544-0.897,1.015-1.44,1.414c-0.399,0.29-0.788,0.453-1.168,0.488c-0.381,0.037-0.662-0.072-0.842-0.326
		C185.552,18.935,185.724,18.664,185.815,18.518z"/>
	<polyline style="fill:#FFFFFF;" points="77.47,39.455 79.044,36.513 79.448,36.513 77.658,39.812 77.658,41.89 77.271,41.89 
		77.271,39.841 75.473,36.513 75.903,36.513 77.47,39.455 	"/>
	<path style="fill:#FFFFFF;" d="M86.564,39.992h-2.185l-0.75,1.897h-0.415l2.162-5.398h0.239l2.118,5.398h-0.422L86.564,39.992
		 M84.516,39.654h1.923l-0.732-1.938c-0.061-0.152-0.135-0.363-0.221-0.632c-0.066,0.234-0.138,0.448-0.216,0.639L84.516,39.654z"/>
	<path style="fill:#FFFFFF;" d="M92.635,39.548v2.342H92.26v-5.377h1.28c0.667,0,1.16,0.123,1.478,0.37
		c0.319,0.247,0.479,0.617,0.479,1.112c0,0.36-0.096,0.665-0.286,0.912c-0.19,0.248-0.478,0.426-0.866,0.533l1.46,2.449h-0.449
		l-1.386-2.342H92.635 M92.635,39.224h1.026c0.454,0,0.806-0.101,1.056-0.304c0.25-0.202,0.375-0.5,0.375-0.896
		c0-0.409-0.123-0.707-0.368-0.894s-0.645-0.279-1.199-0.279h-0.89V39.224z"/>
	<path style="fill:#FFFFFF;" d="M104.411,41.89h-0.379l-3.185-4.773h-0.029c0.029,0.568,0.044,0.998,0.044,1.286v3.487h-0.36v-5.377
		h0.375l3.182,4.767h0.021c-0.021-0.441-0.033-0.86-0.033-1.258v-3.509h0.364V41.89"/>
	<path style="fill:#FFFFFF;" d="M112.667,40.504c0,0.448-0.165,0.804-0.494,1.065c-0.33,0.263-0.769,0.395-1.315,0.395
		c-0.657,0-1.161-0.073-1.511-0.218v-0.375c0.387,0.165,0.881,0.247,1.481,0.247c0.441,0,0.791-0.102,1.05-0.305
		c0.259-0.202,0.389-0.467,0.389-0.796c0-0.203-0.043-0.372-0.129-0.506c-0.086-0.133-0.227-0.255-0.419-0.365
		c-0.194-0.11-0.479-0.229-0.854-0.356c-0.549-0.189-0.928-0.394-1.138-0.613c-0.209-0.219-0.314-0.511-0.314-0.877
		c0-0.401,0.157-0.73,0.473-0.983c0.314-0.254,0.72-0.381,1.216-0.381c0.505,0,0.979,0.097,1.423,0.287l-0.136,0.324
		c-0.446-0.188-0.873-0.28-1.28-0.28c-0.396,0-0.714,0.092-0.949,0.276c-0.234,0.184-0.353,0.434-0.353,0.75
		c0,0.199,0.036,0.362,0.109,0.489c0.071,0.128,0.189,0.242,0.354,0.344c0.165,0.102,0.447,0.224,0.847,0.366
		c0.419,0.145,0.734,0.284,0.944,0.421c0.211,0.136,0.365,0.291,0.462,0.464C112.618,40.049,112.667,40.258,112.667,40.504"/>
	<path style="fill:#FFFFFF;" d="M122.982,40.525c0-0.339,0.09-0.627,0.271-0.864c0.181-0.238,0.517-0.489,1.01-0.754l-0.276-0.302
		c-0.162-0.174-0.282-0.345-0.36-0.511c-0.078-0.167-0.117-0.341-0.117-0.522c0-0.351,0.117-0.63,0.351-0.834
		c0.234-0.206,0.549-0.31,0.943-0.31c0.381,0,0.681,0.099,0.902,0.298c0.223,0.198,0.333,0.474,0.333,0.823
		c0,0.258-0.086,0.494-0.257,0.708c-0.172,0.215-0.481,0.453-0.931,0.716l1.662,1.681c0.149-0.177,0.277-0.369,0.383-0.577
		c0.105-0.209,0.197-0.455,0.276-0.739h0.353c-0.155,0.603-0.411,1.125-0.769,1.566l0.978,0.985h-0.496l-0.71-0.725
		c-0.225,0.221-0.426,0.382-0.603,0.483c-0.177,0.103-0.369,0.181-0.579,0.233c-0.21,0.054-0.448,0.082-0.716,0.082
		c-0.513,0-0.915-0.127-1.208-0.379C123.128,41.332,122.982,40.979,122.982,40.525 M124.655,41.632c0.314,0,0.603-0.053,0.863-0.16
		c0.261-0.105,0.518-0.286,0.77-0.538l-1.775-1.784c-0.333,0.178-0.575,0.327-0.723,0.451c-0.148,0.123-0.257,0.258-0.323,0.402
		c-0.068,0.145-0.102,0.313-0.102,0.508c0,0.35,0.113,0.625,0.342,0.824C123.934,41.533,124.251,41.632,124.655,41.632z
		 M123.901,37.564c0,0.194,0.05,0.373,0.147,0.537s0.285,0.378,0.559,0.641c0.391-0.209,0.661-0.403,0.813-0.585
		c0.151-0.182,0.228-0.389,0.228-0.621c0-0.231-0.076-0.418-0.228-0.562c-0.152-0.143-0.358-0.215-0.618-0.215
		c-0.279,0-0.499,0.071-0.659,0.213C123.982,37.115,123.901,37.312,123.901,37.564z"/>
	<path style="fill:#FFFFFF;" d="M142.23,39.149c0,0.902-0.237,1.585-0.71,2.047c-0.473,0.463-1.168,0.693-2.085,0.693h-1.287v-5.377
		h1.453c0.857,0,1.51,0.226,1.958,0.673C142.006,37.635,142.23,38.29,142.23,39.149 M141.822,39.165c0-0.771-0.195-1.35-0.587-1.738
		c-0.391-0.388-0.965-0.583-1.723-0.583h-0.989v4.715h0.89C141.018,41.559,141.822,40.761,141.822,39.165z"/>
	<polyline style="fill:#FFFFFF;" points="150.169,41.89 147.231,41.89 147.231,36.513 150.169,36.513 150.169,36.858 
		147.606,36.858 147.606,38.893 150.026,38.893 150.026,39.238 147.606,39.238 147.606,41.544 150.169,41.544 150.169,41.89 	"/>
	<path style="fill:#FFFFFF;" d="M158.12,40.504c0,0.448-0.165,0.804-0.494,1.065c-0.33,0.263-0.769,0.395-1.315,0.395
		c-0.657,0-1.161-0.073-1.511-0.218v-0.375c0.387,0.165,0.881,0.247,1.481,0.247c0.441,0,0.791-0.102,1.049-0.305
		c0.26-0.202,0.39-0.467,0.39-0.796c0-0.203-0.043-0.372-0.129-0.506c-0.086-0.133-0.227-0.255-0.419-0.365
		c-0.194-0.11-0.479-0.229-0.854-0.356c-0.549-0.189-0.928-0.394-1.138-0.613c-0.209-0.219-0.314-0.511-0.314-0.877
		c0-0.401,0.157-0.73,0.473-0.983c0.314-0.254,0.721-0.381,1.216-0.381c0.505,0,0.979,0.097,1.423,0.287l-0.136,0.324
		c-0.446-0.188-0.873-0.28-1.28-0.28c-0.397,0-0.713,0.092-0.949,0.276c-0.234,0.184-0.353,0.434-0.353,0.75
		c0,0.199,0.036,0.362,0.108,0.489c0.072,0.128,0.191,0.242,0.355,0.344s0.446,0.224,0.846,0.366
		c0.419,0.145,0.734,0.284,0.945,0.421c0.211,0.136,0.364,0.291,0.461,0.464C158.071,40.049,158.12,40.258,158.12,40.504"/>
	<rect x="163.021" y="36.513" style="fill:#FFFFFF;" width="0.375" height="5.376"/>
	<path style="fill:#FFFFFF;" d="M170.799,39.179h1.981v2.453c-0.52,0.221-1.104,0.332-1.754,0.332c-0.848,0-1.499-0.24-1.951-0.72
		c-0.451-0.479-0.678-1.157-0.678-2.035c0-0.547,0.112-1.032,0.336-1.454c0.225-0.423,0.546-0.75,0.964-0.98
		s0.898-0.346,1.439-0.346c0.586,0,1.112,0.108,1.578,0.324l-0.151,0.338c-0.465-0.216-0.949-0.324-1.449-0.324
		c-0.708,0-1.27,0.219-1.686,0.657c-0.415,0.437-0.623,1.027-0.623,1.771c0,0.809,0.197,1.417,0.592,1.825s0.975,0.612,1.739,0.612
		c0.496,0,0.916-0.069,1.262-0.209v-1.891h-1.6V39.179"/>
	<path style="fill:#FFFFFF;" d="M181.806,41.89h-0.379l-3.186-4.773h-0.028c0.028,0.568,0.044,0.998,0.044,1.286v3.487h-0.361
		v-5.377h0.375l3.182,4.767h0.022c-0.022-0.441-0.034-0.86-0.034-1.258v-3.509h0.365V41.89"/>
	<path style="fill:#FFFFFF;" d="M190.062,40.504c0,0.448-0.165,0.804-0.495,1.065c-0.33,0.263-0.768,0.395-1.314,0.395
		c-0.656,0-1.16-0.073-1.512-0.218v-0.375c0.388,0.165,0.882,0.247,1.482,0.247c0.441,0,0.792-0.102,1.05-0.305
		c0.259-0.202,0.388-0.467,0.388-0.796c0-0.203-0.043-0.372-0.129-0.506c-0.086-0.133-0.225-0.255-0.419-0.365
		c-0.193-0.11-0.478-0.229-0.853-0.356c-0.549-0.189-0.929-0.394-1.138-0.613c-0.211-0.219-0.314-0.511-0.314-0.877
		c0-0.401,0.157-0.73,0.472-0.983c0.315-0.254,0.721-0.381,1.215-0.381c0.506,0,0.98,0.097,1.424,0.287l-0.137,0.324
		c-0.445-0.188-0.872-0.28-1.278-0.28c-0.398,0-0.714,0.092-0.949,0.276c-0.236,0.184-0.354,0.434-0.354,0.75
		c0,0.199,0.036,0.362,0.108,0.489c0.073,0.128,0.191,0.242,0.355,0.344s0.445,0.224,0.846,0.366
		c0.419,0.145,0.733,0.284,0.944,0.421c0.212,0.136,0.365,0.291,0.462,0.464C190.014,40.049,190.062,40.258,190.062,40.504"/>
</g>
</svg>
