<?xml version="1.0" encoding="iso-8859-1"?>
<!-- Generator: Adobe Illustrator 13.0.0, SVG Export Plug-In . SVG Version: 6.00 Build 14948)  -->
<!DOCTYPE svg PUBLIC "-//W3C//DTD SVG 1.1//EN" "http://www.w3.org/Graphics/SVG/1.1/DTD/svg11.dtd">
<svg version="1.1" id="Layer_1" xmlns="http://www.w3.org/2000/svg" xmlns:xlink="http://www.w3.org/1999/xlink" x="0px" y="0px"
	 viewBox="23.536 4.075 168.927 63.224"
	 style="enable-background:new 23.536 4.075 168.927 63.224;" xml:space="preserve">
<g>
	<g>
		<path style="fill:#4B3900;" d="M128.253,4.11c-0.286,5.811,0.918,13.115-1.497,16.799c-1.874,1.029-6.232,1.009-8.585,0.374
			c-0.647-1.095-0.881-2.604-0.747-4.482c2.409,0.172,4.372-0.101,5.975-0.743c1.979-3.144-0.467-8.861,0-11.573
			C124.822,4.171,126.395,3.996,128.253,4.11"/>
		<path style="fill:#4B3900;" d="M172.302,6.352c2.466,0.026,5.153-0.176,7.095,0.374V9.71c-1.948,0.166-4.92-0.687-4.855,1.493
			c-0.27,2.76,3.389,1.593,4.855,2.614c0.213,1.211-0.252,1.736-0.371,2.613h-4.484c-0.35,1.233,2.751,2.225,4.855,2.24
			c0.265,1.384-0.64,1.603-0.371,2.988C170.757,22.728,171.536,13.103,172.302,6.352"/>
		<path style="fill:#4B3900;" d="M130.861,6.725c1.388-0.263,1.604,0.637,2.988,0.372c0.53,3.076-1.406,8.622,1.864,8.962
			c2.052-0.968,1.603-5.907,1.123-8.214h3.731c-0.889,3.964,0.436,10.143-1.865,12.692C129.795,25.042,129.919,12.17,130.861,6.725"
			/>
		<path style="fill:#4B3900;" d="M142.814,6.725c2.602,2.748,2.35,8.35,6.717,9.333c1.562-2.046,0.3-6.921,1.494-9.333
			c1.265,0.103,2.142,0.592,3.73,0.372c-0.736,4.36-0.874,9.331-0.754,14.561c-4.172,0.073-5.502-2.703-8.208-4.109
			c-1.144,0.812,0.358,2.101,0,3.36h-3.356C141.413,16.411,141.677,10.997,142.814,6.725"/>
		<path style="fill:#4B3900;" d="M156.251,7.844h3.731c-0.975,4.197-1.201,9.151-0.746,13.813h-2.985
			C155.581,17.559,155.812,11.989,156.251,7.844"/>
		<path style="fill:#4B3900;" d="M170.062,7.468c-1.588-1.514-5.141-1.078-8.211-1.116c-0.102,5.129-0.596,9.858-0.379,15.306
			c1.266,0.103,2.148,0.593,3.735,0.374c-0.411-1.579-0.425-3.553-0.375-5.601C169.068,15.496,172.75,12.266,170.062,7.468
			 M164.09,13.069V8.592C168.827,7.854,167.854,13.512,164.09,13.069"/>
		<path style="fill:#4B3900;" d="M187.984,15.685c8.352-2.412,1.959-11.635-6.721-8.959c0.137,5.699-0.017,9.645,0,15.677
			c1.739-0.171,2.394,0.735,3.731,0c0.037-1.528,0.071-3.06-0.373-4.106c1.995,1.489,3.763,3.205,6.345,4.106
			c0.625-0.618,1.516-0.973,1.496-2.238C191.051,18.591,188.729,17.925,187.984,15.685 M184.623,13.817
			c0.29-1.658-0.498-2.241-0.373-3.73c0.906-0.725,3.122-0.364,4.102,0C188.688,12.901,187.375,14.082,184.623,13.817"/>
	</g>
	<g>
		<path style="fill:#4B3900;" d="M119.782,26.377c2.677,1.584,3.091,5.43,4.745,8.034c1.521-2.619,2.092-6.183,5.113-7.308
			c1.959,5.348,3.508,11.099,4.016,17.894h-3.647c-0.726-2.195-1.153-4.69-1.827-6.938c-1.25,1.063-2.279,2.349-2.92,4.017
			c-1.246-1.067-1.753-2.873-2.558-4.38c-1.199,1.478-1.476,3.881-1.462,6.572c-1.459,0.119-2.026-0.647-3.653-0.367
			C116.783,37.666,118.579,31.726,119.782,26.377"/>
		<path style="fill:#4B3900;" d="M161.407,27.834c2.079,3.397,3.679,7.275,7.301,9.132c1.167-1.465,1.267-5.976,2.56-8.397
			c1.2,0.255,2.332,0.586,3.648,0.726c-1.568,4.398-2.18,9.752-3.288,14.607c-3.603-0.408-5.104-2.92-7.667-4.379v4.016
			c-1.768,0.064-2.922-0.48-4.379-0.73C160.277,37.904,160.195,32.226,161.407,27.834"/>
		<path style="fill:#4B3900;" d="M158.484,33.312c-0.893-3.993-7.242-6.033-10.223-2.554c-1.334,1.554-2.269,6.885-1.097,10.223
			c1.123,3.197,5.951,3.459,9.129,1.459C157.37,39.018,159.363,37.239,158.484,33.312 M153.741,39.521
			c-1.847,0.262-2.761-0.402-3.653-1.1c-1.604-5.038,3.395-6.493,5.479-3.648C155.953,37.352,154.79,38.378,153.741,39.521"/>
		<path style="fill:#4B3900;" d="M139.5,29.663c-4.081,0.575-5.561,3.413-5.844,5.472c-1.368,9.989,11.578,11.641,12.412,2.562
			C146.584,32.139,142.798,29.195,139.5,29.663 M139.135,39.886c-1.119-0.894-2.186-2.478-1.826-4.02
			C138.824,29.376,147.127,39.143,139.135,39.886"/>
	</g>
	<path style="fill:#4B3900;" d="M86.719,60.863c-2.033,1.227-3.642,2.878-4.532,5.246c-0.492-1.655-0.101-4.191-0.477-5.961
		c-1.225,0.682-1.613,3.471-2.859,3.336c0.042-1.782,0.678-2.977,0.953-4.528c-2.081,0.624-3.92,3.55-4.771,6.196
		c-0.376-1.131-0.284-2.733-0.714-3.812c-1.193,1.669-2.375,3.346-3.817,4.77c-1.09-1.531-0.886-4.358-0.952-6.916
		c-0.408-0.465-1.231-0.514-2.145-0.478c-0.928,1.46-0.12,4.651-0.955,6.201c-0.75-0.604-0.576-2.128-1.191-2.862
		c-0.796,0.01-0.876,1.969-1.429,1.43c-0.431-1.08-0.172-2.851-0.24-4.291c-1.745,1.037-2.424,3.139-2.861,5.482
		c-1.766-0.855-0.615-4.404-0.477-6.195c-0.56-0.078-0.895-0.379-1.668-0.239c-1.331,1.29-0.558,4.688-1.908,5.961
		c-0.396-2.067-0.713-4.218-1.908-5.485c-0.52,0.832-0.532,2.169-0.713,3.34c-1.22-1.646-1.464-4.261-3.577-5.009
		c-0.414,1.415-0.207,3.449-0.478,5.009c-0.823-0.607-1.155-1.705-1.432-2.863c-0.884,0.943-1.038,2.617-1.668,3.814
		c-1.093-0.894-1.339-2.634-1.668-4.291c-0.972,1.256-1.467,2.985-1.67,5.008c-1.006-1.772-1.37-4.191-1.668-6.677
		c-0.472-0.399-1.489-0.26-2.146-0.476c0.09,1.799,0.662,5.438,0.715,7.391c-0.695-1.132-1.325-2.331-1.908-3.576
		c-1.028,0.641-0.935,2.399-1.429,3.576c-1.655-1.684-2.248-4.431-3.1-6.915h-1.908c0.097,2.527,0.643,4.604,0.716,7.154
		c-0.826-1.087-0.873-2.942-1.432-4.293c-0.597,1.071-0.955,2.385-1.19,3.815c-0.975-0.99-1.089-3.093-0.717-4.77
		c-1.306-0.069-1.708,2.71-1.906,4.529c-1.018-5.301-0.968-11.941-1.909-17.881c1.994,3.953,2.259,11.955,8.584,10.015
		c1.315-2.948-2.704-7.166,0.718-8.584c2.424,2.655,0.886,9.284,6.672,8.584c2.47-1.831-1.214-6.499,0.956-8.823
		c3.856-1.18,8.284-0.941,11.444,0.953c2.375,1.425,2.767,3.854,3.098,7.632c0.092,1.086,1.784,2.521,3.1,2.381
		c3.957-0.413,0.986-7.991,4.292-9.532c1.942,3.393-0.354,10.431,4.53,9.774c1.959-0.265,2.488-2.774,3.575-4.771
		c1.027-1.885,2.42-2.864,3.339-4.769c1.493-3.096,1.701-6.896,1.907-10.012c-2.822,1.892-7.89,4.339-10.253,0.478
		c-2.04-3.346-3.674-10.726-6.198-12.637c-0.667-0.505-3.824-1.646-5.244-2.149c-5.284-1.856-13.691-3.66-19.073-4.05
		c-5.869-0.428-9.74,0.944-12.876,3.1c0.126-7.169-0.133-12.5-0.715-18.834c1.375-0.731,3.131,0.201,4.768,0
		c-5.612,3.036-1.814,12.088,4.531,11.681c5.808-0.373,7.961-8.518,1.668-11.442c22.96,0.466,47.562,0.051,70.095-0.239
		c-1.254,4.999-2.026,9.845-3.1,14.543c-5.035-3.58-15.038-3.577-19.788,0.237c-2.684-2.476-5.986-4.538-10.254-6.437
		c-3.986-1.773-7.979-3.339-10.965-0.477c-3.651-1.207-9.153-3.278-13.829-3.814c-2.871-0.329-6.703-0.134-6.198,3.097
		c0.913,5.832,13.563,3.495,19.312,3.34c-0.095,3.991,2.156,8.008,3.813,12.396c2.189,5.798,3.454,10.878,8.583,13.114
		c5.808-4.054,10.491-10.482,10.251-19.789c4.91,1.561,12.723,2.834,18.596,1.191c-2.853,13.786-4.557,29.953-5.959,45.536
		c-0.975-1.965-0.883-4.996-2.383-6.437c-0.728,1.977-1.367,4.039-2.624,5.484c-0.019-1.736,0.076-5.203-0.717-6.916
		c-1.863,1.398-1.462,5.053-3.336,6.439C85.856,63.816,86.146,62.199,86.719,60.863"/>
	<path style="fill:#4B3900;" d="M35.694,7.219c0.28-0.04,0.424,0.052,0.479,0.238c2.93,3.521-1.535,9.063-5.247,7.391
		C33.556,13.174,35.383,10.569,35.694,7.219"/>
	<path style="fill:#4B3900;" d="M58.822,13.179c-4.565,1.354-13.513,1.195-16.214-1.67c0.027-1.184,0.713-1.707,1.432-1.905
		C48.387,8.399,53.393,15.308,58.822,13.179"/>
	<path style="fill:#4B3900;" d="M83.856,19.618c4.167,0.474,9.818-2.202,13.349-1.431c0.535,0.116,2.103,0.708,2.147,1.669
		c0.123,2.626-6.251,1.524-8.104,1.193C88.416,20.54,86.113,19.35,83.856,19.618"/>
	<path style="fill:#4B3900;" d="M63.114,19.618c1.341,0.674,1.901,3.298,1.43,5.007C62.964,24.103,61.798,20.842,63.114,19.618"/>
	<path style="fill:#4B3900;" d="M80.995,24.386c0.17,2.342-1.615,3.908-3.102,3.814C77.982,26.085,78.937,23.032,80.995,24.386"/>
	<path style="fill:#4B3900;" d="M67.882,32.967c1.668,0,1.849,1.49,3.338,1.668c1.074-0.035,1.393-0.832,2.385-0.951
		c0.726,1.734-2.526,1.406-2.148,3.574c0.525,0.498,1.025-0.375,1.91-0.236c-0.372,1.744-4.225,1.612-4.055-0.477
		c0.899-0.107,1.12,0.469,1.671,0.713C70.718,35.057,67.732,35.583,67.882,32.967"/>
	<path style="fill:#4B3900;" d="M41.418,62.057c0.604,0.346,0.461,1.445,1.192,1.668c0.039,0.52-0.846,0.107-1.192,0.238V62.057z"/>
	<path style="fill:#4B3900;" d="M34.265,62.294c0.745,0.211,0.784,1.122,1.43,1.431c-0.03,0.526-1.011,0.102-1.43,0.238V62.294z"/>
	<path style="fill:#4B3900;" d="M58.584,63.008c0.725,0.07,0.327,1.264,0.951,1.432c-0.06,0.561-1.047,0.138-1.189,0
		C58.339,63.877,58.756,63.738,58.584,63.008"/>
	<path style="fill:#4B3900;" d="M68.118,63.963c0.89,0.066,0.486,1.422,1.193,1.666c-0.202,0.702-0.6-0.307-1.193,0V63.963z"/>
	<g>
		<path style="fill:#4B3900;" d="M130.275,49.337v4.119c-2.938,0.521-6.707-1.542-8.605,0.371c0.537,2.332,4.209,1.528,6.362,2.247
			c0.554,1.033-0.207,1.896,0.374,3.365h-5.616c-0.042,2.037,0.337,3.66,1.124,4.865c-1.01,0.859-3.607,0.129-5.238,0.373
			c-0.588-4.656-2.355-11.938-0.371-15.713C121.848,48.287,126.589,48.98,130.275,49.337"/>
		<path style="fill:#4B3900;" d="M173.303,51.957c1.783,1.959,3.063,4.42,4.117,7.109c1.998-2.368,2.995-5.734,6.362-6.734
			c2.087,4.273,4.067,8.648,4.487,14.592c-2.129,0.262-3.105-0.636-5.237-0.372c-0.653-1.344-0.632-3.362-1.497-4.495
			c-1.73,0.521-2.782,1.711-3.742,2.998c-1.277-0.969-2.461-2.023-3.741-2.998c-1.065,0.684-1.206,2.291-1.497,3.745
			c-1.592,0.22-2.477-0.27-3.74-0.372C169.71,60.336,170.823,55.463,173.303,51.957"/>
		<path style="fill:#4B3900;" d="M160.958,60.564c8.731-3.232,0.403-11.447-8.231-9.355c-0.44,5.615-0.026,10.009-0.375,15.341
			c1.287,0.709,3.83,0.16,5.239,0.749c-0.019-1.131-1.005-3.205,0-4.115c2.048,1.315,3.946,2.791,5.987,4.115
			c1.232-0.389,2.083-1.162,2.613-2.244C165.005,63.001,162.17,62.594,160.958,60.564 M156.467,58.691
			c-2.146-4.006,2.141-5.778,4.114-2.99C160.213,57.697,158.74,58.596,156.467,58.691"/>
		<path style="fill:#4B3900;" d="M139.253,51.209c-3.644,3.215-5.478,8.241-6.356,14.218c1.481,0.138,3.586-0.342,4.487,0.375
			c0.31-1.342-0.844-1.809,0-2.618c3.472-0.104,6.845-0.106,7.11,2.992c1.502-0.412,2.982-0.019,3.738-0.374
			C146.882,59.297,144.331,53.993,139.253,51.209 M137.759,60.189c-0.163-1.916,0.894-2.601,1.123-4.115
			c1.873,0.744,2.728,2.51,3.367,4.49C140.477,60.714,139.128,60.447,137.759,60.189"/>
	</g>
</g>
</svg>
